<svg xmlns="http://www.w3.org/2000/svg" viewBox="0 0 720 200" width="720" height="200" role="img" aria-label="Internships posted per week, last 16 weeks"><title>Internships posted per week</title><g font-family="-apple-system,Segoe UI,Roboto,sans-serif" font-size="11"><line x1="38" y1="174.0" x2="706" y2="174.0" stroke="#d0d7de" stroke-width="1"/><text x="32" y="178.0" text-anchor="end" fill="#57606a">0</text><line x1="38" y1="98.0" x2="706" y2="98.0" stroke="#d0d7de" stroke-width="1"/><text x="32" y="102.0" text-anchor="end" fill="#57606a">18</text><line x1="38" y1="22.0" x2="706" y2="22.0" stroke="#d0d7de" stroke-width="1"/><text x="32" y="26.0" text-anchor="end" fill="#57606a">37</text><path d="M38.0,174 L38.0,165.8 L82.5,145.2 L127.1,161.7 L171.6,161.7 L216.1,161.7 L260.7,161.7 L305.2,153.5 L349.7,165.8 L394.3,108.3 L438.8,124.7 L483.3,128.8 L527.9,112.4 L572.4,22.0 L616.9,112.4 L661.5,75.4 L706.0,91.8 L706.0,174 Z" fill="#0969da" fill-opacity="0.12"/><polyline points="38.0,165.8 82.5,145.2 127.1,161.7 171.6,161.7 216.1,161.7 260.7,161.7 305.2,153.5 349.7,165.8 394.3,108.3 438.8,124.7 483.3,128.8 527.9,112.4 572.4,22.0 616.9,112.4 661.5,75.4 706.0,91.8" fill="none" stroke="#0969da" stroke-width="2" stroke-linejoin="round" stroke-linecap="round"/><circle cx="572.4" cy="22.0" r="3.5" fill="#0969da"/><text x="572.4" y="13.0" text-anchor="middle" fill="#24292f" font-weight="600">37</text><circle cx="706.0" cy="91.8" r="3.5" fill="#0969da"/><text x="706.0" y="82.8" text-anchor="middle" fill="#24292f" font-weight="600">20</text><text x="38.0" y="192" text-anchor="middle" fill="#57606a">Apr 06</text><text x="216.1" y="192" text-anchor="middle" fill="#57606a">May 04</text><text x="394.3" y="192" text-anchor="middle" fill="#57606a">Jun 01</text><text x="572.4" y="192" text-anchor="middle" fill="#57606a">Jun 29</text><text x="706.0" y="192" text-anchor="middle" fill="#57606a">Jul 20</text></g></svg>