<svg xmlns="http://www.w3.org/2000/svg" viewBox="0 0 720 200" width="720" height="200" role="img" aria-label="Internships posted per week, last 16 weeks"><title>Internships posted per week</title><g font-family="-apple-system,Segoe UI,Roboto,sans-serif" font-size="11"><line x1="38" y1="174.0" x2="706" y2="174.0" stroke="#d0d7de" stroke-width="1"/><text x="32" y="178.0" text-anchor="end" fill="#57606a">0</text><line x1="38" y1="98.0" x2="706" y2="98.0" stroke="#d0d7de" stroke-width="1"/><text x="32" y="102.0" text-anchor="end" fill="#57606a">12</text><line x1="38" y1="22.0" x2="706" y2="22.0" stroke="#d0d7de" stroke-width="1"/><text x="32" y="26.0" text-anchor="end" fill="#57606a">23</text><path d="M38.0,174 L38.0,167.4 L82.5,107.9 L127.1,154.2 L171.6,154.2 L216.1,114.5 L260.7,154.2 L305.2,147.6 L349.7,154.2 L394.3,147.6 L438.8,141.0 L483.3,160.8 L527.9,121.1 L572.4,134.3 L616.9,127.7 L661.5,121.1 L706.0,22.0 L706.0,174 Z" fill="#0969da" fill-opacity="0.12"/><polyline points="38.0,167.4 82.5,107.9 127.1,154.2 171.6,154.2 216.1,114.5 260.7,154.2 305.2,147.6 349.7,154.2 394.3,147.6 438.8,141.0 483.3,160.8 527.9,121.1 572.4,134.3 616.9,127.7 661.5,121.1 706.0,22.0" fill="none" stroke="#0969da" stroke-width="2" stroke-linejoin="round" stroke-linecap="round"/><circle cx="706.0" cy="22.0" r="3.5" fill="#0969da"/><text x="706.0" y="13.0" text-anchor="middle" fill="#24292f" font-weight="600">23</text><text x="38.0" y="192" text-anchor="middle" fill="#57606a">Mar 16</text><text x="216.1" y="192" text-anchor="middle" fill="#57606a">Apr 13</text><text x="394.3" y="192" text-anchor="middle" fill="#57606a">May 11</text><text x="572.4" y="192" text-anchor="middle" fill="#57606a">Jun 08</text><text x="706.0" y="192" text-anchor="middle" fill="#57606a">Jun 29</text></g></svg>