<svg xmlns="http://www.w3.org/2000/svg" viewBox="0 0 720 200" width="720" height="200" role="img" aria-label="Internships posted per week, last 16 weeks"><title>Internships posted per week</title><g font-family="-apple-system,Segoe UI,Roboto,sans-serif" font-size="11"><line x1="38" y1="174.0" x2="706" y2="174.0" stroke="#30363d" stroke-width="1"/><text x="32" y="178.0" text-anchor="end" fill="#8b949e">0</text><line x1="38" y1="98.0" x2="706" y2="98.0" stroke="#30363d" stroke-width="1"/><text x="32" y="102.0" text-anchor="end" fill="#8b949e">18</text><line x1="38" y1="22.0" x2="706" y2="22.0" stroke="#30363d" stroke-width="1"/><text x="32" y="26.0" text-anchor="end" fill="#8b949e">35</text><path d="M38.0,174 L38.0,165.3 L82.5,143.6 L127.1,161.0 L171.6,161.0 L216.1,161.0 L260.7,161.0 L305.2,152.3 L349.7,165.3 L394.3,104.5 L438.8,121.9 L483.3,126.2 L527.9,113.2 L572.4,22.0 L616.9,108.9 L661.5,69.8 L706.0,174.0 L706.0,174 Z" fill="#2f81f7" fill-opacity="0.12"/><polyline points="38.0,165.3 82.5,143.6 127.1,161.0 171.6,161.0 216.1,161.0 260.7,161.0 305.2,152.3 349.7,165.3 394.3,104.5 438.8,121.9 483.3,126.2 527.9,113.2 572.4,22.0 616.9,108.9 661.5,69.8 706.0,174.0" fill="none" stroke="#2f81f7" stroke-width="2" stroke-linejoin="round" stroke-linecap="round"/><circle cx="572.4" cy="22.0" r="3.5" fill="#2f81f7"/><text x="572.4" y="13.0" text-anchor="middle" fill="#e6edf3" font-weight="600">35</text><circle cx="706.0" cy="174.0" r="3.5" fill="#2f81f7"/><text x="706.0" y="165.0" text-anchor="middle" fill="#e6edf3" font-weight="600">0</text><text x="38.0" y="192" text-anchor="middle" fill="#8b949e">Apr 06</text><text x="216.1" y="192" text-anchor="middle" fill="#8b949e">May 04</text><text x="394.3" y="192" text-anchor="middle" fill="#8b949e">Jun 01</text><text x="572.4" y="192" text-anchor="middle" fill="#8b949e">Jun 29</text><text x="706.0" y="192" text-anchor="middle" fill="#8b949e">Jul 20</text></g></svg>