<svg xmlns="http://www.w3.org/2000/svg" viewBox="0 0 720 200" width="720" height="200" role="img" aria-label="Internships posted per week, last 16 weeks"><title>Internships posted per week</title><g font-family="-apple-system,Segoe UI,Roboto,sans-serif" font-size="11"><line x1="38" y1="174.0" x2="706" y2="174.0" stroke="#30363d" stroke-width="1"/><text x="32" y="178.0" text-anchor="end" fill="#8b949e">0</text><line x1="38" y1="98.0" x2="706" y2="98.0" stroke="#30363d" stroke-width="1"/><text x="32" y="102.0" text-anchor="end" fill="#8b949e">129</text><line x1="38" y1="22.0" x2="706" y2="22.0" stroke="#30363d" stroke-width="1"/><text x="32" y="26.0" text-anchor="end" fill="#8b949e">258</text><path d="M38.0,174 L38.0,159.3 L82.5,166.3 L127.1,166.9 L171.6,165.2 L216.1,149.8 L260.7,162.8 L305.2,152.8 L349.7,148.7 L394.3,152.8 L438.8,141.6 L483.3,138.1 L527.9,118.0 L572.4,77.4 L616.9,22.0 L661.5,46.7 L706.0,98.0 L706.0,174 Z" fill="#2f81f7" fill-opacity="0.12"/><polyline points="38.0,159.3 82.5,166.3 127.1,166.9 171.6,165.2 216.1,149.8 260.7,162.8 305.2,152.8 349.7,148.7 394.3,152.8 438.8,141.6 483.3,138.1 527.9,118.0 572.4,77.4 616.9,22.0 661.5,46.7 706.0,98.0" fill="none" stroke="#2f81f7" stroke-width="2" stroke-linejoin="round" stroke-linecap="round"/><circle cx="616.9" cy="22.0" r="3.5" fill="#2f81f7"/><text x="616.9" y="13.0" text-anchor="middle" fill="#e6edf3" font-weight="600">258</text><circle cx="706.0" cy="98.0" r="3.5" fill="#2f81f7"/><text x="706.0" y="89.0" text-anchor="middle" fill="#e6edf3" font-weight="600">129</text><text x="38.0" y="192" text-anchor="middle" fill="#8b949e">Jun 01</text><text x="216.1" y="192" text-anchor="middle" fill="#8b949e">Jun 29</text><text x="394.3" y="192" text-anchor="middle" fill="#8b949e">Jul 27</text><text x="572.4" y="192" text-anchor="middle" fill="#8b949e">Aug 24</text><text x="706.0" y="192" text-anchor="middle" fill="#8b949e">Sep 14</text></g></svg>