<svg xmlns="http://www.w3.org/2000/svg" viewBox="0 0 720 200" width="720" height="200" role="img" aria-label="Internships posted per week, last 16 weeks"><title>Internships posted per week</title><g font-family="-apple-system,Segoe UI,Roboto,sans-serif" font-size="11"><line x1="38" y1="174.0" x2="706" y2="174.0" stroke="#d0d7de" stroke-width="1"/><text x="32" y="178.0" text-anchor="end" fill="#57606a">0</text><line x1="38" y1="98.0" x2="706" y2="98.0" stroke="#d0d7de" stroke-width="1"/><text x="32" y="102.0" text-anchor="end" fill="#57606a">17</text><line x1="38" y1="22.0" x2="706" y2="22.0" stroke="#d0d7de" stroke-width="1"/><text x="32" y="26.0" text-anchor="end" fill="#57606a">34</text><path d="M38.0,174 L38.0,160.6 L82.5,160.6 L127.1,133.8 L171.6,160.6 L216.1,156.1 L260.7,160.6 L305.2,156.1 L349.7,151.6 L394.3,165.1 L438.8,102.5 L483.3,124.8 L527.9,120.4 L572.4,111.4 L616.9,22.0 L661.5,106.9 L706.0,66.7 L706.0,174 Z" fill="#0969da" fill-opacity="0.12"/><polyline points="38.0,160.6 82.5,160.6 127.1,133.8 171.6,160.6 216.1,156.1 260.7,160.6 305.2,156.1 349.7,151.6 394.3,165.1 438.8,102.5 483.3,124.8 527.9,120.4 572.4,111.4 616.9,22.0 661.5,106.9 706.0,66.7" fill="none" stroke="#0969da" stroke-width="2" stroke-linejoin="round" stroke-linecap="round"/><circle cx="616.9" cy="22.0" r="3.5" fill="#0969da"/><text x="616.9" y="13.0" text-anchor="middle" fill="#24292f" font-weight="600">34</text><circle cx="706.0" cy="66.7" r="3.5" fill="#0969da"/><text x="706.0" y="57.7" text-anchor="middle" fill="#24292f" font-weight="600">24</text><text x="38.0" y="192" text-anchor="middle" fill="#57606a">Mar 30</text><text x="216.1" y="192" text-anchor="middle" fill="#57606a">Apr 27</text><text x="394.3" y="192" text-anchor="middle" fill="#57606a">May 25</text><text x="572.4" y="192" text-anchor="middle" fill="#57606a">Jun 22</text><text x="706.0" y="192" text-anchor="middle" fill="#57606a">Jul 13</text></g></svg>