<svg xmlns="http://www.w3.org/2000/svg" viewBox="0 0 720 200" width="720" height="200" role="img" aria-label="Internships posted per week, last 16 weeks"><title>Internships posted per week</title><g font-family="-apple-system,Segoe UI,Roboto,sans-serif" font-size="11"><line x1="38" y1="174.0" x2="706" y2="174.0" stroke="#d0d7de" stroke-width="1"/><text x="32" y="178.0" text-anchor="end" fill="#57606a">0</text><line x1="38" y1="98.0" x2="706" y2="98.0" stroke="#d0d7de" stroke-width="1"/><text x="32" y="102.0" text-anchor="end" fill="#57606a">130</text><line x1="38" y1="22.0" x2="706" y2="22.0" stroke="#d0d7de" stroke-width="1"/><text x="32" y="26.0" text-anchor="end" fill="#57606a">259</text><path d="M38.0,174 L38.0,166.4 L82.5,167.0 L127.1,165.2 L171.6,149.9 L216.1,162.8 L260.7,152.9 L305.2,148.8 L349.7,152.9 L394.3,141.7 L438.8,138.2 L483.3,118.2 L527.9,77.8 L572.4,22.0 L616.9,44.3 L661.5,53.7 L706.0,98.3 L706.0,174 Z" fill="#0969da" fill-opacity="0.12"/><polyline points="38.0,166.4 82.5,167.0 127.1,165.2 171.6,149.9 216.1,162.8 260.7,152.9 305.2,148.8 349.7,152.9 394.3,141.7 438.8,138.2 483.3,118.2 527.9,77.8 572.4,22.0 616.9,44.3 661.5,53.7 706.0,98.3" fill="none" stroke="#0969da" stroke-width="2" stroke-linejoin="round" stroke-linecap="round"/><circle cx="572.4" cy="22.0" r="3.5" fill="#0969da"/><text x="572.4" y="13.0" text-anchor="middle" fill="#24292f" font-weight="600">259</text><circle cx="706.0" cy="98.3" r="3.5" fill="#0969da"/><text x="706.0" y="89.3" text-anchor="middle" fill="#24292f" font-weight="600">129</text><text x="38.0" y="192" text-anchor="middle" fill="#57606a">Jun 08</text><text x="216.1" y="192" text-anchor="middle" fill="#57606a">Jul 06</text><text x="394.3" y="192" text-anchor="middle" fill="#57606a">Aug 03</text><text x="572.4" y="192" text-anchor="middle" fill="#57606a">Aug 31</text><text x="706.0" y="192" text-anchor="middle" fill="#57606a">Sep 21</text></g></svg>