<svg xmlns="http://www.w3.org/2000/svg" viewBox="0 0 720 200" width="720" height="200" role="img" aria-label="Internships posted per week, last 16 weeks"><title>Internships posted per week</title><g font-family="-apple-system,Segoe UI,Roboto,sans-serif" font-size="11"><line x1="38" y1="174.0" x2="706" y2="174.0" stroke="#30363d" stroke-width="1"/><text x="32" y="178.0" text-anchor="end" fill="#8b949e">0</text><line x1="38" y1="98.0" x2="706" y2="98.0" stroke="#30363d" stroke-width="1"/><text x="32" y="102.0" text-anchor="end" fill="#8b949e">102</text><line x1="38" y1="22.0" x2="706" y2="22.0" stroke="#30363d" stroke-width="1"/><text x="32" y="26.0" text-anchor="end" fill="#8b949e">203</text><path d="M38.0,174 L38.0,170.3 L82.5,171.8 L127.1,155.3 L171.6,164.3 L216.1,165.8 L260.7,162.8 L305.2,143.3 L349.7,159.8 L394.3,147.0 L438.8,141.8 L483.3,147.0 L527.9,133.6 L572.4,128.3 L616.9,102.9 L661.5,51.2 L706.0,22.0 L706.0,174 Z" fill="#2f81f7" fill-opacity="0.12"/><polyline points="38.0,170.3 82.5,171.8 127.1,155.3 171.6,164.3 216.1,165.8 260.7,162.8 305.2,143.3 349.7,159.8 394.3,147.0 438.8,141.8 483.3,147.0 527.9,133.6 572.4,128.3 616.9,102.9 661.5,51.2 706.0,22.0" fill="none" stroke="#2f81f7" stroke-width="2" stroke-linejoin="round" stroke-linecap="round"/><circle cx="706.0" cy="22.0" r="3.5" fill="#2f81f7"/><text x="706.0" y="13.0" text-anchor="middle" fill="#e6edf3" font-weight="600">203</text><text x="38.0" y="192" text-anchor="middle" fill="#8b949e">May 18</text><text x="216.1" y="192" text-anchor="middle" fill="#8b949e">Jun 15</text><text x="394.3" y="192" text-anchor="middle" fill="#8b949e">Jul 13</text><text x="572.4" y="192" text-anchor="middle" fill="#8b949e">Aug 10</text><text x="706.0" y="192" text-anchor="middle" fill="#8b949e">Aug 31</text></g></svg>